<?xml version="1.0" encoding="utf-8"?>
<!-- Generator: Adobe Illustrator 23.0.3, SVG Export Plug-In . SVG Version: 6.00 Build 0)  -->
<svg version="1.1" xmlns="http://www.w3.org/2000/svg" xmlns:xlink="http://www.w3.org/1999/xlink" x="0px" y="0px"
	 viewBox="0 0 175 125" style="enable-background:new 0 0 175 125;" xml:space="preserve">
<style type="text/css">
	.st0{fill:#F7941D;stroke:#F7941D;stroke-miterlimit:10;}
	.st1{fill:none;stroke:#000000;stroke-width:8;stroke-miterlimit:10;}
	.st2{fill:none;stroke:#000000;stroke-width:10;stroke-miterlimit:10;}
</style>
<g id="Layer_1">
	<g>
		<path class="st0" d="M69.66,51.12v14.7h-3.4V59.8h-6.68v6.03h-3.4v-14.7h3.4v5.8h6.68v-5.8H69.66z"/>
		<path class="st0" d="M75.09,65.25c-0.94-0.5-1.68-1.19-2.22-2.07c-0.53-0.88-0.8-1.88-0.8-3s0.27-2.12,0.8-3
			c0.53-0.88,1.27-1.57,2.22-2.07c0.94-0.5,2.01-0.75,3.2-0.75c1.19,0,2.25,0.25,3.19,0.75c0.94,0.5,1.67,1.19,2.21,2.07
			c0.53,0.88,0.8,1.88,0.8,3s-0.27,2.12-0.8,3c-0.53,0.88-1.27,1.57-2.21,2.07c-0.94,0.5-2,0.75-3.19,0.75
			C77.1,65.99,76.03,65.74,75.09,65.25z M80.36,62.45c0.54-0.57,0.81-1.33,0.81-2.28s-0.27-1.71-0.81-2.28
			c-0.54-0.57-1.23-0.85-2.07-0.85c-0.84,0-1.53,0.28-2.08,0.85c-0.55,0.57-0.82,1.33-0.82,2.28s0.27,1.71,0.82,2.28
			c0.55,0.57,1.24,0.85,2.08,0.85C79.13,63.3,79.82,63.02,80.36,62.45z"/>
		<path class="st0" d="M104.51,55.61c0.83,0.83,1.25,2.08,1.25,3.75v6.47h-3.28v-5.96c0-0.9-0.19-1.56-0.56-2.01
			c-0.37-0.44-0.9-0.66-1.59-0.66c-0.77,0-1.38,0.25-1.83,0.75c-0.45,0.5-0.67,1.24-0.67,2.22v5.67h-3.28v-5.96
			c0-1.78-0.71-2.67-2.14-2.67c-0.76,0-1.36,0.25-1.81,0.75c-0.45,0.5-0.67,1.24-0.67,2.22v5.67h-3.28v-11.3h3.13v1.3
			c0.42-0.48,0.93-0.84,1.54-1.09s1.28-0.38,2.01-0.38c0.8,0,1.52,0.16,2.16,0.47c0.64,0.31,1.16,0.77,1.55,1.38
			c0.46-0.59,1.05-1.04,1.75-1.36c0.71-0.32,1.48-0.48,2.32-0.48C102.55,54.36,103.68,54.77,104.51,55.61z"/>
		<path class="st0" d="M119.83,61.1h-8.55c0.15,0.7,0.52,1.25,1.09,1.66c0.57,0.41,1.29,0.61,2.14,0.61c0.59,0,1.11-0.09,1.56-0.26
			c0.45-0.17,0.88-0.45,1.27-0.83l1.74,1.89c-1.06,1.22-2.62,1.83-4.66,1.83c-1.27,0-2.4-0.25-3.38-0.75s-1.74-1.19-2.27-2.07
			c-0.53-0.88-0.8-1.88-0.8-3c0-1.11,0.26-2.1,0.79-2.99c0.52-0.89,1.25-1.58,2.16-2.08c0.92-0.5,1.94-0.75,3.08-0.75
			c1.11,0,2.11,0.24,3,0.71c0.9,0.48,1.6,1.16,2.11,2.05c0.51,0.89,0.77,1.92,0.77,3.1C119.89,60.26,119.87,60.55,119.83,61.1z
			 M112.16,57.47c-0.5,0.42-0.81,0.99-0.92,1.72h5.57c-0.11-0.71-0.42-1.28-0.92-1.71c-0.5-0.43-1.12-0.64-1.85-0.64
			C113.29,56.84,112.67,57.05,112.16,57.47z"/>
		<path class="st0" d="M49.92,90.3c-1.21-0.65-2.16-1.55-2.86-2.71s-1.04-2.46-1.04-3.92c0-1.46,0.35-2.76,1.04-3.92
			s1.65-2.06,2.86-2.71c1.21-0.65,2.57-0.98,4.08-0.98c1.27,0,2.43,0.22,3.45,0.67c1.03,0.45,1.89,1.09,2.59,1.93l-2.18,2.02
			c-0.99-1.15-2.23-1.72-3.7-1.72c-0.91,0-1.72,0.2-2.44,0.6c-0.71,0.4-1.27,0.96-1.67,1.67c-0.4,0.71-0.6,1.53-0.6,2.44
			c0,0.91,0.2,1.72,0.6,2.44c0.4,0.71,0.96,1.27,1.67,1.67c0.71,0.4,1.53,0.6,2.44,0.6c1.47,0,2.7-0.58,3.7-1.74l2.18,2.02
			c-0.7,0.85-1.57,1.5-2.6,1.95c-1.04,0.45-2.19,0.67-3.47,0.67C52.49,91.27,51.13,90.95,49.92,90.3z"/>
		<path class="st0" d="M62.28,77.62c-0.38-0.35-0.57-0.78-0.57-1.3s0.19-0.95,0.57-1.3c0.38-0.35,0.87-0.53,1.47-0.53
			s1.09,0.17,1.47,0.5s0.57,0.76,0.57,1.26c0,0.55-0.19,1-0.57,1.35c-0.38,0.36-0.87,0.54-1.47,0.54S62.66,77.97,62.28,77.62z
			 M62.11,79.72h3.28v11.3h-3.28V79.72z"/>
		<path class="st0" d="M78.69,80.82c0.86,0.84,1.29,2.09,1.29,3.74v6.47h-3.28v-5.96c0-0.9-0.2-1.56-0.59-2.01
			c-0.39-0.44-0.96-0.66-1.7-0.66c-0.83,0-1.48,0.25-1.97,0.77c-0.49,0.51-0.73,1.27-0.73,2.28v5.59h-3.28v-11.3h3.13v1.32
			c0.43-0.48,0.97-0.84,1.62-1.1c0.64-0.26,1.35-0.39,2.12-0.39C76.7,79.56,77.83,79.98,78.69,80.82z"/>
		<path class="st0" d="M94.07,86.3h-8.55c0.15,0.7,0.52,1.25,1.09,1.66c0.57,0.41,1.29,0.61,2.14,0.61c0.59,0,1.11-0.09,1.56-0.26
			c0.45-0.17,0.88-0.45,1.27-0.83l1.74,1.89c-1.06,1.22-2.62,1.83-4.66,1.83c-1.27,0-2.4-0.25-3.38-0.75s-1.74-1.19-2.27-2.07
			c-0.53-0.88-0.8-1.88-0.8-3c0-1.11,0.26-2.1,0.79-2.99s1.25-1.58,2.16-2.08c0.92-0.5,1.94-0.75,3.08-0.75c1.11,0,2.11,0.24,3,0.71
			c0.9,0.48,1.6,1.16,2.11,2.05c0.51,0.89,0.77,1.92,0.77,3.1C94.14,85.46,94.12,85.75,94.07,86.3z M86.41,82.66
			c-0.5,0.42-0.81,0.99-0.92,1.72h5.57c-0.11-0.71-0.42-1.28-0.92-1.71s-1.12-0.64-1.85-0.64C87.53,82.03,86.91,82.24,86.41,82.66z"
			/>
		<path class="st0" d="M114.16,80.81c0.83,0.83,1.25,2.08,1.25,3.75v6.47h-3.28v-5.96c0-0.9-0.19-1.56-0.56-2.01
			c-0.37-0.44-0.9-0.66-1.59-0.66c-0.77,0-1.38,0.25-1.83,0.75c-0.45,0.5-0.67,1.24-0.67,2.22v5.67h-3.28v-5.96
			c0-1.78-0.71-2.67-2.14-2.67c-0.76,0-1.36,0.25-1.81,0.75c-0.45,0.5-0.67,1.24-0.67,2.22v5.67h-3.28v-11.3h3.13v1.3
			c0.42-0.48,0.93-0.84,1.54-1.09s1.28-0.38,2.01-0.38c0.8,0,1.52,0.16,2.16,0.47c0.64,0.32,1.16,0.77,1.55,1.38
			c0.46-0.59,1.05-1.04,1.75-1.37c0.71-0.32,1.48-0.48,2.32-0.48C112.2,79.56,113.33,79.97,114.16,80.81z"/>
		<path class="st0" d="M126.94,80.81c0.94,0.83,1.41,2.09,1.41,3.77v6.45h-3.07v-1.41c-0.62,1.05-1.76,1.58-3.44,1.58
			c-0.87,0-1.62-0.15-2.26-0.44c-0.64-0.29-1.12-0.7-1.46-1.22c-0.34-0.52-0.5-1.11-0.5-1.76c0-1.05,0.4-1.88,1.19-2.48
			c0.79-0.6,2.01-0.9,3.66-0.9h2.6c0-0.71-0.22-1.26-0.65-1.65c-0.43-0.38-1.08-0.58-1.95-0.58c-0.6,0-1.19,0.09-1.77,0.28
			c-0.58,0.19-1.07,0.45-1.48,0.77l-1.18-2.29c0.62-0.43,1.35-0.77,2.22-1.01c0.86-0.24,1.75-0.36,2.66-0.36
			C124.66,79.56,126,79.97,126.94,80.81z M124.15,88.6c0.43-0.26,0.74-0.64,0.92-1.14V86.3h-2.25c-1.34,0-2.02,0.44-2.02,1.32
			c0,0.42,0.16,0.75,0.49,1s0.78,0.37,1.35,0.37C123.21,88.99,123.71,88.86,124.15,88.6z"/>
	</g>
</g>
<g id="Layer_2">
	<polyline class="st1" points="36,85.53 36,106.23 139,106.23 139,85.53 	"/>
	<polyline class="st2" points="21.47,62.53 87.5,15.47 153.53,62.53 	"/>
	<line class="st2" x1="35.47" y1="33.51" x2="35.47" y2="52.18"/>
</g>
<g id="Layer_3">
</g>
</svg>
